<svg xmlns="http://www.w3.org/2000/svg" xmlns:xlink="http://www.w3.org/1999/xlink" viewBox="0 0 112.57 108.84"><defs><style>.cls-1{isolation:isolate;}.cls-2{fill:url(#linear-gradient);}.cls-3{fill:#62acdf;mix-blend-mode:multiply;}.cls-4,.cls-5,.cls-7{fill:#fff;mix-blend-mode:overlay;}.cls-4{opacity:0.5;}.cls-5{opacity:0.33;}.cls-6{fill:url(#linear-gradient-2);}.cls-7{opacity:0.7;}</style><linearGradient id="linear-gradient" x1="241.13" y1="420.5" x2="353.7" y2="420.5" gradientUnits="userSpaceOnUse"><stop offset="0" stop-color="#62acdf"/><stop offset="1" stop-color="#4460ac"/></linearGradient><linearGradient id="linear-gradient-2" x1="48.34" y1="62.47" x2="4.12" y2="18.25" gradientUnits="userSpaceOnUse"><stop offset="0" stop-color="#ffd109"/><stop offset="1" stop-color="#ee3e96"/></linearGradient></defs><g class="cls-1"><g id="Layer_1" data-name="Layer 1"><path class="cls-2" d="M298.67,366.08H241.13v27.73h19.94V386h38.21a34.54,34.54,0,0,1,34.48,35c-.29,18.92-16.08,34-35,34H261.07V441.35a19.94,19.94,0,0,0-19.94-19.94v53.51h58.15a54.48,54.48,0,0,0,54.42-54.74C353.52,390.16,328.71,366.08,298.67,366.08Z" transform="translate(-241.13 -366.08)"/><path class="cls-3" d="M267.34,386h-6.27v3.92H241.13V366.08H257C258.26,371.29,261.24,380,267.34,386Z" transform="translate(-241.13 -366.08)"/><path class="cls-4" d="M298.67,366.08H241.13v1.38h57.54c29.88,0,54.59,23.82,55,53.63,0-.3,0-.6,0-.91C353.52,390.16,328.71,366.08,298.67,366.08Zm35.08,55.07c-.34,18.86-16.11,33.84-35,33.84H261.07v1.38h37.68c18.93,0,34.72-15,35-34C333.76,422,333.76,421.56,333.75,421.15Z" transform="translate(-241.13 -366.08)"/><path class="cls-5" d="M298.67,366.08h-20c29.25,0,53.55,22.84,55,51.77a.41.41,0,0,1,0,.11c.07,1,.1,2,.09,3.07q0,1-.09,1.92a54.47,54.47,0,0,1-54.35,52h20a54.48,54.48,0,0,0,54.42-54.74C353.52,390.16,328.71,366.08,298.67,366.08Z" transform="translate(-241.13 -366.08)"/><polygon class="cls-6" points="52.41 66.53 37.13 65.37 24.94 64.44 30.58 58.81 0 28.23 0 0.04 19.93 19.98 44.67 44.71 50.31 39.07 51.02 48.47 51.24 51.29 52.3 65.12 52.4 66.49 52.41 66.53"/><polygon class="cls-5" points="52.41 66.53 0 14.97 0 0.04 19.93 19.98 44.67 44.71 50.31 39.07 51.02 48.47 51.24 51.29 52.3 65.12 52.4 66.49 52.41 66.53"/><polygon class="cls-4" points="19.93 19.98 44.67 44.71 44.1 45.29 19.36 20.55 0 1.2 0 0.04 19.93 19.98"/><polygon class="cls-7" points="52.41 66.53 51.73 65.87 51.72 65.7 50.66 51.87 50.45 49.05 49.73 39.65 50.31 39.07 51.02 48.47 51.24 51.29 52.3 65.12 52.4 66.49 52.41 66.53"/></g></g></svg>