<svg id="Layer_1" data-name="Layer 1" xmlns="http://www.w3.org/2000/svg" viewBox="0 0 35.63 35.63"><defs><style>.cls-1{fill:#010101;}</style></defs><path class="cls-1" d="M306.93,409.05a2.09,2.09,0,1,0,2.09,2.09A2.09,2.09,0,0,0,306.93,409.05Z" transform="translate(-279.69 -402.69)"/><path class="cls-1" d="M297.65,411.73a8.77,8.77,0,1,0,8.77,8.77A8.78,8.78,0,0,0,297.65,411.73Zm0,14.39a5.62,5.62,0,1,1,5.62-5.62A5.62,5.62,0,0,1,297.65,426.12Z" transform="translate(-279.69 -402.69)"/><path class="cls-1" d="M304.61,438.31H290.39a10.71,10.71,0,0,1-10.7-10.7V413.39a10.71,10.71,0,0,1,10.7-10.7h14.22a10.71,10.71,0,0,1,10.7,10.7v14.22A10.71,10.71,0,0,1,304.61,438.31ZM290.39,406a7.36,7.36,0,0,0-7.35,7.35v14.22a7.36,7.36,0,0,0,7.35,7.35h14.22a7.36,7.36,0,0,0,7.35-7.35V413.39a7.36,7.36,0,0,0-7.35-7.35Z" transform="translate(-279.69 -402.69)"/></svg>