<svg id="Layer_1" data-name="Layer 1" xmlns="http://www.w3.org/2000/svg" viewBox="0 0 43.28 35.63"><defs><style>.cls-1{fill:#010101;}</style></defs><path class="cls-1" d="M319,406.29a18.12,18.12,0,0,1-4.38,1.25c.7-.12,1.74-1.39,2.15-1.91a7.88,7.88,0,0,0,1.45-2.65c0-.07.07-.17,0-.23a.3.3,0,0,0-.23,0,22.36,22.36,0,0,1-5.19,2,.34.34,0,0,1-.36-.1,3.93,3.93,0,0,0-.45-.46,9.43,9.43,0,0,0-2.51-1.54,8.65,8.65,0,0,0-3.86-.62,9.17,9.17,0,0,0-3.66,1,9.54,9.54,0,0,0-2.95,2.41,9.1,9.1,0,0,0-1.76,3.53,9.56,9.56,0,0,0-.1,3.73c0,.21,0,.24-.17.21-7.13-1.06-13-3.61-17.84-9.08-.21-.24-.32-.24-.49,0-2.1,3.15-1.08,8.2,1.54,10.68a12.71,12.71,0,0,0,1.1,1,9,9,0,0,1-3.44-1c-.21-.13-.32-.05-.34.18a6.11,6.11,0,0,0,.06,1,9.16,9.16,0,0,0,5.64,7.29,5.57,5.57,0,0,0,1.14.35,10.39,10.39,0,0,1-3.37.1c-.25,0-.34.08-.25.31,1.49,4.05,4.69,5.25,7.09,5.94.32.06.64.06,1,.13,0,0,0,0-.06.06-.8,1.21-3.56,2.12-4.84,2.56a17.39,17.39,0,0,1-7.36,1c-.39-.06-.48-.06-.58,0s0,.16.11.26c.5.33,1,.63,1.53.91a24.91,24.91,0,0,0,4.92,2c8.83,2.44,18.79.64,25.42-5.95,5.21-5.18,7-12.31,7-19.46,0-.28.33-.44.52-.58a17.12,17.12,0,0,0,3.46-3.6,1.09,1.09,0,0,0,.23-.69v0C319.17,406.18,319.17,406.21,319,406.29Z" transform="translate(-275.89 -402.02)"/></svg>